<?xml version="1.0" encoding="UTF-8" standalone="no"?>
<!DOCTYPE svg PUBLIC "-//W3C//DTD SVG 1.1//EN"
 "http://www.w3.org/Graphics/SVG/1.1/DTD/svg11.dtd">
<!-- Generated by graphviz version 2.43.0 (0)
 -->
<!-- Title: %3 Pages: 1 -->
<svg width="485pt" height="413pt"
 viewBox="0.00 0.00 485.00 413.00" xmlns="http://www.w3.org/2000/svg" xmlns:xlink="http://www.w3.org/1999/xlink">
<g id="graph0" class="graph" transform="scale(1 1) rotate(0) translate(4 409)">
<title>%3</title>
<polygon fill="white" stroke="transparent" points="-4,4 -4,-409 481,-409 481,4 -4,4"/>
<!-- 139888476068320 -->
<g id="node1" class="node">
<title>139888476068320</title>
<polygon fill="#caff70" stroke="black" points="178.5,-31 124.5,-31 124.5,0 178.5,0 178.5,-31"/>
<text text-anchor="middle" x="151.5" y="-7" font-family="monospace" font-size="10.00"> ()</text>
</g>
<!-- 139888479100528 -->
<g id="node2" class="node">
<title>139888479100528</title>
<polygon fill="lightgrey" stroke="black" points="196,-108 107,-108 107,-67 196,-67 196,-108"/>
<text text-anchor="middle" x="151.5" y="-96" font-family="monospace" font-size="10.00">AddBackward0</text>
<text text-anchor="middle" x="151.5" y="-85" font-family="monospace" font-size="10.00">&#45;&#45;&#45;&#45;&#45;&#45;&#45;&#45;&#45;&#45;&#45;&#45;</text>
<text text-anchor="middle" x="151.5" y="-74" font-family="monospace" font-size="10.00">alpha: 1</text>
</g>
<!-- 139888479100528&#45;&gt;139888476068320 -->
<g id="edge11" class="edge">
<title>139888479100528&#45;&gt;139888476068320</title>
<path fill="none" stroke="black" d="M151.5,-66.63C151.5,-58.76 151.5,-49.63 151.5,-41.33"/>
<polygon fill="black" stroke="black" points="155,-41.08 151.5,-31.08 148,-41.08 155,-41.08"/>
</g>
<!-- 139888479097888 -->
<g id="node3" class="node">
<title>139888479097888</title>
<polygon fill="lightgrey" stroke="black" points="280,-190.5 191,-190.5 191,-149.5 280,-149.5 280,-190.5"/>
<text text-anchor="middle" x="235.5" y="-178.5" font-family="monospace" font-size="10.00">AddBackward0</text>
<text text-anchor="middle" x="235.5" y="-167.5" font-family="monospace" font-size="10.00">&#45;&#45;&#45;&#45;&#45;&#45;&#45;&#45;&#45;&#45;&#45;&#45;</text>
<text text-anchor="middle" x="235.5" y="-156.5" font-family="monospace" font-size="10.00">alpha: 1</text>
</g>
<!-- 139888479097888&#45;&gt;139888479100528 -->
<g id="edge1" class="edge">
<title>139888479097888&#45;&gt;139888479100528</title>
<path fill="none" stroke="black" d="M214.74,-149.1C204.06,-138.87 190.89,-126.25 179.34,-115.18"/>
<polygon fill="black" stroke="black" points="181.67,-112.56 172.03,-108.17 176.82,-117.62 181.67,-112.56"/>
</g>
<!-- 139888475720480 -->
<g id="node4" class="node">
<title>139888475720480</title>
<polygon fill="lightgrey" stroke="black" points="316,-284 155,-284 155,-232 316,-232 316,-284"/>
<text text-anchor="middle" x="235.5" y="-272" font-family="monospace" font-size="10.00">PowBackward0</text>
<text text-anchor="middle" x="235.5" y="-261" font-family="monospace" font-size="10.00">&#45;&#45;&#45;&#45;&#45;&#45;&#45;&#45;&#45;&#45;&#45;&#45;&#45;&#45;&#45;&#45;&#45;&#45;&#45;&#45;&#45;&#45;&#45;&#45;</text>
<text text-anchor="middle" x="235.5" y="-250" font-family="monospace" font-size="10.00">exponent: &#160;&#160;&#160;&#160;&#160;&#160;&#160;&#160;&#160;&#160;&#160;&#160;&#160;2</text>
<text text-anchor="middle" x="235.5" y="-239" font-family="monospace" font-size="10.00">self &#160;&#160;&#160;: [saved tensor]</text>
</g>
<!-- 139888475720480&#45;&gt;139888479097888 -->
<g id="edge2" class="edge">
<title>139888475720480&#45;&gt;139888479097888</title>
<path fill="none" stroke="black" d="M235.5,-231.66C235.5,-221.95 235.5,-210.79 235.5,-200.71"/>
<polygon fill="black" stroke="black" points="239,-200.7 235.5,-190.7 232,-200.7 239,-200.7"/>
</g>
<!-- 139888475721776 -->
<g id="node5" class="node">
<title>139888475721776</title>
<polygon fill="lightgrey" stroke="black" points="203,-339 102,-339 102,-320 203,-320 203,-339"/>
<text text-anchor="middle" x="152.5" y="-327" font-family="monospace" font-size="10.00">AccumulateGrad</text>
</g>
<!-- 139888475721776&#45;&gt;139888475720480 -->
<g id="edge3" class="edge">
<title>139888475721776&#45;&gt;139888475720480</title>
<path fill="none" stroke="black" d="M162.68,-319.98C171.5,-312.59 184.83,-301.43 197.68,-290.67"/>
<polygon fill="black" stroke="black" points="200.16,-293.16 205.58,-284.05 195.66,-287.79 200.16,-293.16"/>
</g>
<!-- 139888475727872 -->
<g id="node11" class="node">
<title>139888475727872</title>
<polygon fill="lightgrey" stroke="black" points="137,-278.5 0,-278.5 0,-237.5 137,-237.5 137,-278.5"/>
<text text-anchor="middle" x="68.5" y="-266.5" font-family="monospace" font-size="10.00">CosBackward0</text>
<text text-anchor="middle" x="68.5" y="-255.5" font-family="monospace" font-size="10.00">&#45;&#45;&#45;&#45;&#45;&#45;&#45;&#45;&#45;&#45;&#45;&#45;&#45;&#45;&#45;&#45;&#45;&#45;&#45;&#45;</text>
<text text-anchor="middle" x="68.5" y="-244.5" font-family="monospace" font-size="10.00">self: [saved tensor]</text>
</g>
<!-- 139888475721776&#45;&gt;139888475727872 -->
<g id="edge10" class="edge">
<title>139888475721776&#45;&gt;139888475727872</title>
<path fill="none" stroke="black" d="M142.2,-319.98C131.78,-311.35 115.12,-297.58 100.28,-285.3"/>
<polygon fill="black" stroke="black" points="102.21,-282.35 92.28,-278.67 97.75,-287.74 102.21,-282.35"/>
</g>
<!-- 139888477167968 -->
<g id="node6" class="node">
<title>139888477167968</title>
<polygon fill="lightblue" stroke="black" points="179.5,-405 125.5,-405 125.5,-375 179.5,-375 179.5,-405"/>
<text text-anchor="middle" x="152.5" y="-393" font-family="monospace" font-size="10.00">x</text>
<text text-anchor="middle" x="152.5" y="-382" font-family="monospace" font-size="10.00"> ()</text>
</g>
<!-- 139888477167968&#45;&gt;139888475721776 -->
<g id="edge4" class="edge">
<title>139888477167968&#45;&gt;139888475721776</title>
<path fill="none" stroke="black" d="M152.5,-374.84C152.5,-367.21 152.5,-357.7 152.5,-349.45"/>
<polygon fill="black" stroke="black" points="156,-349.27 152.5,-339.27 149,-349.27 156,-349.27"/>
</g>
<!-- 139888475726864 -->
<g id="node7" class="node">
<title>139888475726864</title>
<polygon fill="lightgrey" stroke="black" points="477,-284 334,-284 334,-232 477,-232 477,-284"/>
<text text-anchor="middle" x="405.5" y="-272" font-family="monospace" font-size="10.00">MulBackward0</text>
<text text-anchor="middle" x="405.5" y="-261" font-family="monospace" font-size="10.00">&#45;&#45;&#45;&#45;&#45;&#45;&#45;&#45;&#45;&#45;&#45;&#45;&#45;&#45;&#45;&#45;&#45;&#45;&#45;&#45;&#45;</text>
<text text-anchor="middle" x="405.5" y="-250" font-family="monospace" font-size="10.00">other: [saved tensor]</text>
<text text-anchor="middle" x="405.5" y="-239" font-family="monospace" font-size="10.00">self : &#160;&#160;&#160;&#160;&#160;&#160;&#160;&#160;&#160;&#160;None</text>
</g>
<!-- 139888475726864&#45;&gt;139888479097888 -->
<g id="edge5" class="edge">
<title>139888475726864&#45;&gt;139888479097888</title>
<path fill="none" stroke="black" d="M355.87,-231.89C332.96,-220.3 305.87,-206.6 283.2,-195.13"/>
<polygon fill="black" stroke="black" points="284.61,-191.92 274.11,-190.53 281.45,-198.17 284.61,-191.92"/>
</g>
<!-- 139888475722928 -->
<g id="node8" class="node">
<title>139888475722928</title>
<polygon fill="lightgrey" stroke="black" points="456,-339 355,-339 355,-320 456,-320 456,-339"/>
<text text-anchor="middle" x="405.5" y="-327" font-family="monospace" font-size="10.00">AccumulateGrad</text>
</g>
<!-- 139888475722928&#45;&gt;139888475726864 -->
<g id="edge6" class="edge">
<title>139888475722928&#45;&gt;139888475726864</title>
<path fill="none" stroke="black" d="M405.5,-319.98C405.5,-313.43 405.5,-303.91 405.5,-294.33"/>
<polygon fill="black" stroke="black" points="409,-294.05 405.5,-284.05 402,-294.05 409,-294.05"/>
</g>
<!-- 139888477167488 -->
<g id="node9" class="node">
<title>139888477167488</title>
<polygon fill="lightblue" stroke="black" points="432.5,-405 378.5,-405 378.5,-375 432.5,-375 432.5,-405"/>
<text text-anchor="middle" x="405.5" y="-393" font-family="monospace" font-size="10.00">y</text>
<text text-anchor="middle" x="405.5" y="-382" font-family="monospace" font-size="10.00"> ()</text>
</g>
<!-- 139888477167488&#45;&gt;139888475722928 -->
<g id="edge7" class="edge">
<title>139888477167488&#45;&gt;139888475722928</title>
<path fill="none" stroke="black" d="M405.5,-374.84C405.5,-367.21 405.5,-357.7 405.5,-349.45"/>
<polygon fill="black" stroke="black" points="409,-349.27 405.5,-339.27 402,-349.27 409,-349.27"/>
</g>
<!-- 139888479094912 -->
<g id="node10" class="node">
<title>139888479094912</title>
<polygon fill="lightgrey" stroke="black" points="161,-196 0,-196 0,-144 161,-144 161,-196"/>
<text text-anchor="middle" x="80.5" y="-184" font-family="monospace" font-size="10.00">PowBackward0</text>
<text text-anchor="middle" x="80.5" y="-173" font-family="monospace" font-size="10.00">&#45;&#45;&#45;&#45;&#45;&#45;&#45;&#45;&#45;&#45;&#45;&#45;&#45;&#45;&#45;&#45;&#45;&#45;&#45;&#45;&#45;&#45;&#45;&#45;</text>
<text text-anchor="middle" x="80.5" y="-162" font-family="monospace" font-size="10.00">exponent: &#160;&#160;&#160;&#160;&#160;&#160;&#160;&#160;&#160;&#160;&#160;&#160;&#160;2</text>
<text text-anchor="middle" x="80.5" y="-151" font-family="monospace" font-size="10.00">self &#160;&#160;&#160;: [saved tensor]</text>
</g>
<!-- 139888479094912&#45;&gt;139888479100528 -->
<g id="edge8" class="edge">
<title>139888479094912&#45;&gt;139888479100528</title>
<path fill="none" stroke="black" d="M102.58,-143.97C110.45,-135.05 119.35,-124.95 127.38,-115.84"/>
<polygon fill="black" stroke="black" points="130.18,-117.96 134.17,-108.15 124.93,-113.33 130.18,-117.96"/>
</g>
<!-- 139888475727872&#45;&gt;139888479094912 -->
<g id="edge9" class="edge">
<title>139888475727872&#45;&gt;139888479094912</title>
<path fill="none" stroke="black" d="M71.22,-237.49C72.51,-228.25 74.09,-216.92 75.58,-206.25"/>
<polygon fill="black" stroke="black" points="79.05,-206.71 76.97,-196.32 72.12,-205.74 79.05,-206.71"/>
</g>
</g>
</svg>
